# xmcd
#
# Track frame offsets: 
#        150
#        11166
#        24720
#        34287
#        49632
#        58684
#        66863
#        72141
#        103557
#        137265
#        145003
#
# Disc length: 2322 seconds
#
# Revision: 0
# Processed by: cddbd v1.5.1PL0 Copyright (c) Steve Scherf et al.
# Submitted via: ExactAudioCopy v0.95a5
#
DISCID=9509100b
DTITLE=Prince And The Revolution - Le Zenith [CD1]
DYEAR=1900
DGENRE=
TTITLE0=Around The World In A Day
TTITLE1=Christopher Tracy's Parade
TTITLE2=New Position
TTITLE3=I Wonder U
TTITLE4=Raspberry Beret
TTITLE5=Delirious
TTITLE6=Controversy
TTITLE7=A Love Bizarre
TTITLE8=Do Me Baby -- How Much Is That Doggy In The Window
TTITLE9=Automatic
TTITLE10=DMSR -- When Doves Cry
EXTD=
EXTT0=
EXTT1=
EXTT2=
EXTT3=
EXTT4=
EXTT5=
EXTT6=
EXTT7=
EXTT8=
EXTT9=
EXTT10=
PLAYORDER=
